<svg width="1500" height="1500" viewBox="0 0 1500 1500" fill="none" xmlns="http://www.w3.org/2000/svg">
<rect width="1500" height="1500" fill="#040524"></rect>
<path d="M868.63 983.71L796.25 987.29C796.25 987.29 791.15 1008.62 770.8 1015.64C749.33 1023.05 746.37 1038.07 746.58 1058.02C746.54 1059.87 747.235 1061.66 748.513 1063C749.792 1064.34 751.549 1065.12 753.4 1065.17L860.16 1065.59C862.745 1065.6 865.233 1064.61 867.108 1062.83C868.984 1061.05 870.102 1058.62 870.23 1056.04C876.17 1025.52 872.85 1011.27 868.63 983.71Z" fill="#040524" stroke="#FFFFFF" stroke-width="8" stroke-miterlimit="10" stroke-linecap="round"></path>
<path d="M746.92 1046.01L869.17 1046.48" stroke="#FFFFFF" stroke-width="8" stroke-miterlimit="10" stroke-linecap="round"></path>
<path d="M967 988.11L898.78 988.99C898.78 988.99 889.59 1013.21 869.25 1020.28C847.8 1027.74 844.87 1042.77 845.13 1062.72C845.095 1064.57 845.796 1066.36 847.078 1067.7C848.36 1069.03 850.119 1069.81 851.97 1069.85L958.73 1070C961.308 1070 963.787 1069.01 965.65 1067.23C967.513 1065.45 968.617 1063.02 968.73 1060.44C974.62 1029.89 971.27 1015.65 967 988.11Z" fill="#040524" stroke="#FFFFFF" stroke-width="8" stroke-miterlimit="10" stroke-linecap="round"></path>
<path d="M845.431 1050.7L967.681 1050.88" stroke="#FFFFFF" stroke-width="8" stroke-miterlimit="10" stroke-linecap="round"></path>
<path d="M792.78 989.62L871.78 982.74C871.78 982.74 827.38 870.38 827.33 825.25C827.46 823.03 829.21 805.25 852.24 728.41C864.76 686.64 877.24 648.41 877.41 648.06C879.152 642.928 879.86 637.501 879.492 632.094C879.124 626.687 877.688 621.406 875.266 616.557C872.844 611.708 869.485 607.388 865.383 603.846C861.281 600.304 856.517 597.61 851.368 595.92C846.218 594.231 840.784 593.579 835.381 594.003C829.978 594.427 824.712 595.918 819.889 598.389C815.065 600.861 810.78 604.265 807.28 608.403C803.78 612.542 801.136 617.333 799.5 622.5C798.96 624.14 786.15 663.22 773.12 706.81C748.64 788.67 745.34 812.5 745.34 825C745.34 884.1 791.62 986.27 792.78 989.62Z" fill="#040524" stroke="#FFFFFF" stroke-width="8" stroke-miterlimit="10" stroke-linecap="round"></path>
<path d="M688.341 807.07C667.341 822.58 635.081 814.54 616.341 789.13C597.601 763.72 599.731 730.94 620.461 715.04C683.001 667.13 716.371 786.4 688.341 807.07Z" stroke="#FFFFFF" stroke-width="8" stroke-miterlimit="10" stroke-linecap="round"></path>
<path d="M889.571 999L970.311 987.61C970.171 986.83 957.311 939.94 952.591 922.11C941.701 881.01 933.831 851.31 931.781 817.4C925.641 715.83 912.131 623 911.561 619.14C909.988 608.38 904.205 598.686 895.485 592.19C886.764 585.693 875.82 582.927 865.061 584.5C854.301 586.073 844.606 591.855 838.11 600.576C831.614 609.296 828.848 620.24 830.421 631C830.561 631.92 839.181 720.2 845.101 818.13C847.641 860.2 861.681 899.13 873.331 943.05C878.151 961.3 889.541 998.9 889.571 999Z" fill="#040524" stroke="#FFFFFF" stroke-width="8" stroke-miterlimit="10" stroke-linecap="round"></path>
<path d="M656.081 484.53L653.98 495.66" stroke="#FFFFFF" stroke-width="8" stroke-miterlimit="10" stroke-linecap="round"></path>
<path d="M734.511 471.62L762.001 660.74L917.811 634.55C917.811 634.55 895.911 389 734.511 471.62Z" fill="#FFFFFF" stroke="#FFFFFF" stroke-width="8.49" stroke-miterlimit="10" stroke-linecap="round"></path>
<path d="M823.32 538.55C823.13 560.092 820.028 581.509 814.1 602.22C808.289 622.27 800.203 641.589 790 659.8C780.252 677.164 769.13 693.72 756.74 709.31C744.74 724.58 732.02 738.75 719.26 752.21C712.641 759.229 703.532 763.369 693.892 763.739C684.252 764.109 674.852 760.681 667.715 754.191C660.577 747.701 656.273 738.668 655.728 729.036C655.183 719.405 658.44 709.944 664.8 702.69L664.89 702.58C676.21 689.66 686.89 676.75 696.4 663.58C705.772 650.825 714.106 637.338 721.32 623.25C728.097 610.002 733.331 596.021 736.92 581.58C740.287 567.756 741.77 553.541 741.33 539.32C741.159 533.936 742.049 528.571 743.951 523.531C745.854 518.491 748.73 513.875 752.416 509.946C759.86 502.013 770.151 497.361 781.025 497.015C791.899 496.669 802.465 500.657 810.399 508.101C814.327 511.787 817.491 516.211 819.71 521.119C821.928 526.028 823.159 531.326 823.33 536.71C823.33 537.2 823.33 537.71 823.33 538.16L823.32 538.55Z" fill="#040524" stroke="#FFFFFF" stroke-width="8" stroke-miterlimit="10" stroke-linecap="round"></path>
<path d="M692.431 672.28L738.391 725.81" stroke="#FFFFFF" stroke-width="8" stroke-miterlimit="10" stroke-linecap="round"></path>
<path d="M701.28 818.47L644.7 860.2L581.54 782.67L642 738.08L701.28 818.47Z" fill="#040524" stroke="#FFFFFF" stroke-width="8" stroke-miterlimit="10" stroke-linecap="round"></path>
<path d="M605.6 812.21L637.88 851.84L545.23 830.62L557.461 816.04L605.6 812.21Z" fill="#040524" stroke="#FFFFFF" stroke-width="8" stroke-miterlimit="10" stroke-linecap="round"></path>
<path d="M664.62 427.32C650.78 435 643.74 453.24 651.05 467.78L673.41 512.41C680.72 526.95 699.6 532.28 713.41 524.61L670.6 424.88C668.518 425.456 666.511 426.275 664.62 427.32Z" fill="#040524" stroke="#FFFFFF" stroke-width="8" stroke-miterlimit="10" stroke-linecap="round"></path>
<path d="M722.621 466.32L706.001 434.46C701.321 425.53 681.511 425.83 672.221 428.31L704.101 499.51C714.391 494 728.061 476.7 722.621 466.32Z" fill="#040524" stroke="#FFFFFF" stroke-width="8" stroke-miterlimit="10" stroke-linecap="round"></path>
<path d="M701.1 429.2C701.1 429.2 688.81 410.05 687 407C687 407 659.11 413.61 649.31 418.38C639.51 423.15 643.31 450.46 643.31 450.46L626.2 475.52L727.47 434.45L701.1 429.2Z" fill="#040524" stroke="#FFFFFF" stroke-width="8" stroke-miterlimit="10" stroke-linecap="round"></path>
<path d="M644.141 448.09L701.101 429.2" stroke="#FFFFFF" stroke-width="8.49" stroke-miterlimit="10" stroke-linecap="round"></path>
<path d="M692.431 483.41C699.08 483.41 704.471 478.02 704.471 471.37C704.471 464.72 699.08 459.33 692.431 459.33C685.781 459.33 680.391 464.72 680.391 471.37C680.391 478.02 685.781 483.41 692.431 483.41Z" fill="#040524" stroke="#FFFFFF" stroke-width="8" stroke-miterlimit="10" stroke-linecap="round"></path>
<path d="M668.01 481.16C669.728 481.16 671.12 479.768 671.12 478.05C671.12 476.332 669.728 474.94 668.01 474.94C666.293 474.94 664.9 476.332 664.9 478.05C664.9 479.768 666.293 481.16 668.01 481.16Z" fill="#FFFFFF"></path>
<path d="M717.34 719.04C725.762 719.04 732.59 712.212 732.59 703.79C732.59 695.368 725.762 688.54 717.34 688.54C708.918 688.54 702.09 695.368 702.09 703.79C702.09 712.212 708.918 719.04 717.34 719.04Z" fill="#040524" stroke="#FFFFFF" stroke-width="8" stroke-miterlimit="10" stroke-linecap="round"></path>
<path d="M783.92 540.09C790.537 540.09 795.9 534.726 795.9 528.11C795.9 521.494 790.537 516.13 783.92 516.13C777.304 516.13 771.94 521.494 771.94 528.11C771.94 534.726 777.304 540.09 783.92 540.09Z" fill="#040524" stroke="#FFFFFF" stroke-width="8" stroke-miterlimit="10" stroke-linecap="round"></path>
<path d="M937.58 1007.96C946.953 1007.96 954.55 1000.36 954.55 990.99C954.55 981.618 946.953 974.02 937.58 974.02C928.208 974.02 920.61 981.618 920.61 990.99C920.61 1000.36 928.208 1007.96 937.58 1007.96Z" fill="#040524" stroke="#FFFFFF" stroke-width="8" stroke-miterlimit="10" stroke-linecap="round"></path>
<path d="M542.5 973.56C542.5 973.74 542.5 973.92 542.57 974.1C542.55 973.92 542.52 973.74 542.5 973.56Z" fill="#FFFFFF"></path>
<path d="M542.57 974.1C542.7 975.1 542.81 976.1 542.92 976.9C542.82 976.1 542.7 975.17 542.57 974.1Z" fill="#FFFFFF"></path>
<path d="M433.1 886.16C430.091 885.949 427.075 886.457 424.302 887.642C421.528 888.827 419.076 890.656 417.15 892.977C415.223 895.298 413.876 898.044 413.222 900.989C412.567 903.933 412.622 906.991 413.384 909.91C414.145 912.829 415.591 915.524 417.601 917.773C419.611 920.022 422.127 921.761 424.942 922.845C427.757 923.928 430.79 924.326 433.789 924.006C436.788 923.685 439.668 922.654 442.19 921C454.19 914 476.55 909.59 505.34 938.26C506.93 939.85 508.63 940.2 510.34 939.17C513.1 937.48 511.23 934.17 511.22 934.17C487.65 890.4 444.9 886.4 433.1 886.16Z" fill="#FFFFFF"></path>
<path d="M543 977.4C543 977.82 543.1 978.21 543.15 978.56C543.08 978.22 543 977.83 543 977.4Z" fill="#FFFFFF"></path>
<path d="M542.92 976.9C542.92 977.08 542.92 977.24 542.98 977.4C543 977.24 542.94 977.08 542.92 976.9Z" fill="#FFFFFF"></path>
<path d="M501.52 984.94C501.52 985.09 501.52 985.25 501.44 985.4C501.47 985.25 501.49 985.09 501.52 984.94Z" fill="#FFFFFF"></path>
<path d="M501.44 985.4L501.03 987.83C501.15 987.14 501.28 986.33 501.44 985.4Z" fill="#FFFFFF"></path>
<path d="M600.111 912.63C602.754 912.543 605.38 913.088 607.771 914.219C610.162 915.351 612.248 917.036 613.857 919.136C615.466 921.235 616.551 923.688 617.022 926.291C617.492 928.893 617.336 931.571 616.564 934.101C615.793 936.631 614.429 938.94 612.586 940.838C610.744 942.735 608.475 944.165 605.968 945.01C603.462 945.855 600.79 946.089 598.175 945.695C595.559 945.3 593.076 944.287 590.931 942.74C580.711 936.18 561.361 931.54 535.211 955.51C533.771 956.84 532.271 957.09 530.841 956.13C528.491 954.56 530.241 951.74 530.241 951.73C552.371 914.36 589.811 912.42 600.111 912.63Z" fill="#FFFFFF"></path>
<path d="M501 988.27L500.83 989.27C500.84 989 500.9 988.64 501 988.27Z" fill="#FFFFFF"></path>
<path d="M501.001 987.83C501.001 987.98 501.001 988.13 500.931 988.27C501.001 988.13 501.001 988 501.001 987.83Z" fill="#FFFFFF"></path>
<path d="M559.03 910.42C566.132 910.42 571.89 904.662 571.89 897.56C571.89 890.458 566.132 884.7 559.03 884.7C551.928 884.7 546.17 890.458 546.17 897.56C546.17 904.662 551.928 910.42 559.03 910.42Z" fill="#040524" stroke="#FFFFFF" stroke-width="8" stroke-miterlimit="10" stroke-linecap="round"></path>
<path d="M443 856.43C453.041 856.43 461.18 848.291 461.18 838.25C461.18 828.209 453.041 820.07 443 820.07C432.96 820.07 424.82 828.209 424.82 838.25C424.82 848.291 432.96 856.43 443 856.43Z" fill="#040524" stroke="#FFFFFF" stroke-width="8" stroke-miterlimit="10" stroke-linecap="round"></path>
<path d="M529.33 965.84C533.95 942.19 539.48 920.12 551.76 909.97" stroke="#FFFFFF" stroke-width="8" stroke-linecap="round" stroke-linejoin="round"></path>
<path d="M453.34 855.57C487.27 880.13 505.39 920.76 519.13 965.84" stroke="#FFFFFF" stroke-width="8" stroke-linecap="round" stroke-linejoin="round"></path>
<path d="M488.54 981.75C485.12 976 481 969.29 481 969.29H548.28C548.28 969.29 544.19 975.98 540.76 981.75C541.92 982.94 548.67 992.31 550.96 1001.54C553.02 1009.8 546.79 1065.6 538.28 1065.6H491C482.7 1065.6 476.33 1010.13 478.2 1002.05C480.39 992.66 487.36 983 488.54 981.75Z" fill="#040524" stroke="#FFFFFF" stroke-width="8" stroke-miterlimit="10" stroke-linecap="round"></path>
<path d="M851.351 834.23L930.461 832.02" stroke="#FFFFFF" stroke-width="8" stroke-miterlimit="10" stroke-linecap="round"></path>
<path d="M748.05 829.97L827.17 827.76" stroke="#FFFFFF" stroke-width="8" stroke-miterlimit="10" stroke-linecap="round"></path>
<path d="M890.901 850.1C900.273 850.1 907.871 842.502 907.871 833.13C907.871 823.758 900.273 816.16 890.901 816.16C881.528 816.16 873.931 823.758 873.931 833.13C873.931 842.502 881.528 850.1 890.901 850.1Z" fill="#040524" stroke="#FFFFFF" stroke-width="8" stroke-miterlimit="10" stroke-linecap="round"></path>
</svg>