<svg width="1500" height="1500" viewBox="0 0 1500 1500" fill="none" xmlns="http://www.w3.org/2000/svg">
<rect width="1500" height="1500" fill="#040524"></rect>
<path d="M759.3 1093L769.67 673.34C769.935 662.466 765.87 651.932 758.368 644.056C750.867 636.179 740.544 631.605 729.67 631.34C718.796 631.075 708.262 635.14 700.386 642.642C692.509 650.143 687.935 660.466 687.67 671.34L677.28 1093H759.3Z" fill="#FFFFFF"></path>
<path d="M856.26 1093L845.84 671.26C845.575 660.386 841.001 650.063 833.124 642.562C825.248 635.06 814.714 630.995 803.84 631.26C792.966 631.525 782.643 636.099 775.141 643.976C767.64 651.852 763.575 662.386 763.84 673.26L774.23 1093H856.26Z" fill="#FFFFFF"></path>
<path d="M850.56 845.05H679.02L681.22 482.24L761.45 471.52L850.56 496.28V845.05Z" fill="#040524" stroke="#FFFFFF" stroke-width="8" stroke-miterlimit="10" stroke-linecap="round"></path>
<path d="M681.9 654.94C664.13 667.6 565.7 700.52 582 610.2C584.46 596.57 592.82 580.94 602.94 563.2C619.22 534.56 640.52 498.38 641.33 497.34C653.33 481.78 676.46 488.47 695.64 498.22C714.82 507.97 720.64 528.49 708.64 544.05C708.48 544.19 693.56 646.64 681.9 654.94Z" fill="#040524" stroke="#FFFFFF" stroke-width="8" stroke-miterlimit="10" stroke-linecap="round"></path>
<path d="M870.52 815.08C869.29 815.08 868.04 815.02 866.79 814.91C861.427 814.426 856.212 812.891 851.443 810.392C846.674 807.892 842.444 804.478 838.994 800.344C835.544 796.21 832.943 791.437 831.338 786.297C829.733 781.158 829.156 775.753 829.64 770.39C837.87 679.16 817.07 549.59 816.86 548.29C815.197 537.596 817.83 526.679 824.183 517.919C830.537 509.158 840.097 503.265 850.778 501.525C861.459 499.784 872.395 502.336 881.202 508.626C890.008 514.916 895.971 524.432 897.79 535.1C898.72 540.81 920.48 676.1 911.31 777.76C910.392 787.948 905.698 797.424 898.151 804.329C890.604 811.234 880.749 815.069 870.52 815.08Z" fill="#040524" stroke="#FFFFFF" stroke-width="8" stroke-miterlimit="10" stroke-linecap="round"></path>
<path d="M689.85 544.17C684.85 569.76 685.25 596.3 691.99 625.17L689.85 544.17Z" fill="#040524"></path>
<path d="M689.85 544.17C684.85 569.76 685.25 596.3 691.99 625.17" stroke="#FFFFFF" stroke-width="8" stroke-miterlimit="10" stroke-linecap="round"></path>
<path d="M697.61 938.8H659.51L661.72 486.92L740.52 474.14V893.14C740.52 918.36 721.31 938.8 697.61 938.8Z" fill="#040524" stroke="#FFFFFF" stroke-width="8" stroke-miterlimit="10" stroke-linecap="round"></path>
<path d="M821.23 938.8H864.94V501L772 474.14V893.14C772 918.36 794 938.8 821.23 938.8Z" fill="#040524" stroke="#FFFFFF" stroke-width="8" stroke-miterlimit="10" stroke-linecap="round"></path>
<path d="M709.16 481.21V552.58" stroke="#FFFFFF" stroke-width="8" stroke-miterlimit="10" stroke-linecap="round"></path>
<path d="M825.1 487.77V564.17" stroke="#FFFFFF" stroke-width="8" stroke-miterlimit="10" stroke-linecap="round"></path>
<path d="M846.1 611.45V621.53C846.1 625.246 844.818 628.849 842.469 631.729C840.121 634.61 836.85 636.592 833.21 637.34" fill="#040524"></path>
<path d="M846.1 611.45V621.53C846.1 625.246 844.818 628.849 842.469 631.729C840.121 634.61 836.85 636.592 833.21 637.34" stroke="#FFFFFF" stroke-width="8" stroke-miterlimit="10" stroke-linecap="round"></path>
<path d="M804.11 605.45V580.31C804.11 576.031 805.809 571.927 808.834 568.901C811.858 565.874 815.961 564.173 820.24 564.17H830C834.28 564.17 838.386 565.87 841.413 568.897C844.439 571.924 846.14 576.029 846.14 580.31V605.45" fill="#040524"></path>
<path d="M804.11 605.45V580.31C804.11 576.031 805.809 571.927 808.834 568.901C811.858 565.874 815.961 564.173 820.24 564.17H830C834.28 564.17 838.386 565.87 841.413 568.897C844.439 571.924 846.14 576.029 846.14 580.31V605.45" stroke="#FFFFFF" stroke-width="8" stroke-miterlimit="10" stroke-linecap="round"></path>
<path d="M817 637.34C813.361 636.59 810.093 634.607 807.747 631.727C805.4 628.847 804.119 625.245 804.12 621.53V611.45" fill="#040524"></path>
<path d="M817 637.34C813.361 636.59 810.093 634.607 807.747 631.727C805.4 628.847 804.119 625.245 804.12 621.53V611.45" stroke="#FFFFFF" stroke-width="8" stroke-miterlimit="10" stroke-linecap="round"></path>
<path d="M710.25 564.41C717.645 564.41 723.64 558.415 723.64 551.02C723.64 543.625 717.645 537.63 710.25 537.63C702.855 537.63 696.86 543.625 696.86 551.02C696.86 558.415 702.855 564.41 710.25 564.41Z" fill="#040524" stroke="#FFFFFF" stroke-width="8" stroke-miterlimit="10" stroke-linecap="round"></path>
<path d="M781.074 414.571C783.083 398.163 771.411 383.234 755.003 381.225C738.596 379.217 723.667 390.889 721.658 407.296L716.909 446.087C714.9 462.494 726.572 477.423 742.98 479.432C759.387 481.441 774.316 469.768 776.325 453.361L781.074 414.571Z" fill="#040524" stroke="#FFFFFF" stroke-width="8" stroke-miterlimit="10" stroke-linecap="round"></path>
<path d="M761.07 425.32C762.788 425.32 764.18 423.928 764.18 422.21C764.18 420.492 762.788 419.1 761.07 419.1C759.352 419.1 757.96 420.492 757.96 422.21C757.96 423.928 759.352 425.32 761.07 425.32Z" fill="#FFFFFF"></path>
<path d="M738.06 422.5C739.778 422.5 741.17 421.108 741.17 419.39C741.17 417.672 739.778 416.28 738.06 416.28C736.342 416.28 734.95 417.672 734.95 419.39C734.95 421.108 736.342 422.5 738.06 422.5Z" fill="#FFFFFF"></path>
<path d="M748.04 421.93L741.6 430.71" stroke="#FFFFFF" stroke-width="8" stroke-miterlimit="10" stroke-linecap="round"></path>
<path d="M776.52 375.39C774.5 373.968 772.192 373.009 769.76 372.58C764.277 371.477 759.075 369.273 754.47 366.1L754.38 366.05C746.46 360.94 736.28 362.64 731.64 369.84C727 377.04 729.64 387.01 737.58 392.12C738.316 392.588 739.085 393.002 739.88 393.36L750.8 394.7L781 398.39C781.16 398.16 781.32 397.93 781.47 397.68C783.559 394.013 784.209 389.7 783.294 385.58C782.379 381.46 779.965 377.828 776.52 375.39Z" fill="#FFFFFF"></path>
<path d="M771.016 388.264L782.679 389.692C784.037 389.859 785.274 390.558 786.117 391.636C786.96 392.714 787.34 394.083 787.174 395.441L785.04 412.871L782.31 412.537C778.583 412.08 775.189 410.162 772.876 407.203C770.563 404.245 769.52 400.489 769.976 396.761L771.016 388.264Z" fill="#FFFFFF"></path>
<path d="M720.563 405.402L717.278 404.999L719.506 386.795C719.673 385.437 720.372 384.2 721.45 383.357C722.528 382.514 723.897 382.134 725.255 382.301L737.474 383.796L736.344 393.028C736.123 394.877 735.539 396.665 734.625 398.289C733.712 399.912 732.487 401.34 731.021 402.489C729.555 403.639 727.877 404.488 726.082 404.988C724.288 405.487 722.412 405.628 720.563 405.402Z" fill="#FFFFFF"></path>
<path d="M752.06 1091.2H705.68C713.93 1074.34 702.8 1074.44 687.83 1075.2C684.14 1075.46 682.23 1076.79 680.83 1079.08C677.83 1083.78 670.27 1092.71 656.12 1097.63C634.52 1105.14 631.7 1120.32 632 1140.47C632.031 1142.26 632.764 1143.97 634.042 1145.23C635.319 1146.48 637.038 1147.19 638.83 1147.19L748.45 1147.35C753.81 1147.35 756.04 1144.69 757.01 1137.88C759.44 1111.86 757.52 1106.08 752.06 1091.2Z" fill="#040524" stroke="#FFFFFF" stroke-width="8" stroke-linecap="round" stroke-linejoin="round"></path>
<path d="M669.27 1101.15L662.51 1092.52" stroke="#FFFFFF" stroke-width="8" stroke-linecap="round" stroke-linejoin="round"></path>
<path d="M678.92 1094.01L672.17 1085.38" stroke="#FFFFFF" stroke-width="8" stroke-linecap="round" stroke-linejoin="round"></path>
<path d="M632.27 1128.08L754.52 1128.26" stroke="#FFFFFF" stroke-width="8" stroke-linecap="round" stroke-linejoin="round"></path>
<path d="M782 1091.2H828.39C820.13 1074.34 831.27 1074.44 846.24 1075.2C849.93 1075.46 851.83 1076.79 853.24 1079.08C856.24 1083.78 863.79 1092.71 877.95 1097.63C899.55 1105.14 902.37 1120.32 902.06 1140.47C902.034 1142.26 901.302 1143.97 900.024 1145.23C898.745 1146.49 897.023 1147.19 895.23 1147.19L785.62 1147.35C780.25 1147.35 778.02 1144.69 777.06 1137.88C774.65 1111.86 776.57 1106.08 782 1091.2Z" fill="#040524" stroke="#FFFFFF" stroke-width="8" stroke-linecap="round" stroke-linejoin="round"></path>
<path d="M864.81 1101.15L871.57 1092.52" stroke="#FFFFFF" stroke-width="8" stroke-linecap="round" stroke-linejoin="round"></path>
<path d="M855.16 1094.01L861.92 1085.38" stroke="#FFFFFF" stroke-width="8" stroke-linecap="round" stroke-linejoin="round"></path>
<path d="M901.82 1128.08L779.56 1128.26" stroke="#FFFFFF" stroke-width="8" stroke-linecap="round" stroke-linejoin="round"></path>
<path d="M864.94 750L912.24 765.7" stroke="#FFFFFF" stroke-width="8" stroke-miterlimit="10" stroke-linecap="round"></path>
<path d="M674.38 630.16L690 605C693.64 599.16 692.17 594 686 590.89C683.781 589.765 681.263 589.374 678.808 589.773C676.353 590.172 674.088 591.341 672.34 593.11L667.23 598.28L676.07 559C676.549 556.85 676.21 554.599 675.119 552.685C674.028 550.772 672.264 549.333 670.17 548.65C669.013 548.272 667.791 548.137 666.579 548.253C665.368 548.368 664.193 548.733 663.129 549.323C662.065 549.914 661.134 550.717 660.394 551.683C659.654 552.65 659.122 553.758 658.83 554.94L651.62 584L649.62 575.77C649.159 573.901 648.049 572.257 646.489 571.131C644.928 570.005 643.019 569.469 641.1 569.62L633.39 570.23C631.732 570.363 630.155 571 628.872 572.057C627.588 573.114 626.659 574.539 626.21 576.14C626.145 576.374 626.003 576.579 625.807 576.722C625.611 576.866 625.373 576.939 625.13 576.93L617.93 576.72C616.052 576.663 614.224 577.331 612.825 578.586C611.427 579.841 610.566 581.587 610.42 583.46C610.355 584.31 609.982 585.108 609.371 585.703C608.759 586.297 607.952 586.649 607.1 586.69L602.8 586.9C601.256 586.968 599.791 587.601 598.684 588.68C597.577 589.759 596.907 591.208 596.8 592.75L596.31 599.62C596.18 601.585 596.71 603.537 597.815 605.167C598.92 606.797 600.537 608.012 602.41 608.62L611.19 611.44L611.85 622.17C612.053 625.494 612.997 628.732 614.611 631.645C616.225 634.558 618.469 637.075 621.18 639.01L622.77 640.15C629.405 644.903 637.411 647.361 645.57 647.15C655.83 647 668.16 641.57 674.38 630.16Z" fill="#040524" stroke="#FFFFFF" stroke-width="8" stroke-linecap="round" stroke-linejoin="round"></path>
<path d="M626.16 576.17L624.6 594.11C624.503 595.237 624.641 596.371 625.006 597.442C625.372 598.512 625.956 599.495 626.721 600.327C627.487 601.16 628.417 601.824 629.454 602.277C630.49 602.73 631.609 602.963 632.74 602.96V602.96C634.456 602.955 636.126 602.409 637.514 601.4C638.902 600.391 639.936 598.97 640.47 597.34L643.71 587.34" stroke="#FFFFFF" stroke-width="8" stroke-linecap="round" stroke-linejoin="round"></path>
<path d="M610.78 581.6L609 594.31C608.856 595.358 608.935 596.425 609.232 597.441C609.529 598.456 610.038 599.398 610.724 600.203C611.411 601.009 612.26 601.66 613.215 602.114C614.171 602.569 615.212 602.816 616.27 602.84C618.044 602.881 619.775 602.292 621.156 601.176C622.536 600.061 623.477 598.493 623.81 596.75L624.81 591.65" stroke="#FFFFFF" stroke-width="8" stroke-linecap="round" stroke-linejoin="round"></path>
<path opacity="0.78" d="M673.78 607.13L480.15 578.73V387.24L673.78 358.83V607.13Z" fill="#ff7900"></path>
<g opacity="0.69">
<path opacity="0.69" d="M530.59 413.94L566.54 410.63" stroke="white" stroke-width="8" stroke-miterlimit="10" stroke-linecap="round"></path>
<path opacity="0.69" d="M539.25 426.47L566.57 424.19" stroke="white" stroke-width="8" stroke-miterlimit="10" stroke-linecap="round"></path>
<path opacity="0.69" d="M539.27 439.81L566.6 437.77" stroke="white" stroke-width="8" stroke-miterlimit="10" stroke-linecap="round"></path>
<path opacity="0.69" d="M539.28 453.16L566.62 451.35" stroke="white" stroke-width="8" stroke-miterlimit="10" stroke-linecap="round"></path>
<path opacity="0.69" d="M571.91 466.89L581.83 466.34" stroke="white" stroke-width="8" stroke-miterlimit="10" stroke-linecap="round"></path>
<path opacity="0.69" d="M571.93 477.56L581.85 477.07" stroke="white" stroke-width="8" stroke-miterlimit="10" stroke-linecap="round"></path>
<path opacity="0.69" d="M571.95 488.23L581.88 487.81" stroke="white" stroke-width="8" stroke-miterlimit="10" stroke-linecap="round"></path>
<path opacity="0.69" d="M597.28 512.73C597.315 511.175 597.036 509.628 596.457 508.184C595.879 506.739 595.015 505.427 593.916 504.325C592.817 503.224 591.507 502.356 590.064 501.774C588.621 501.192 587.075 500.909 585.52 500.94C582.369 501.13 579.412 502.529 577.266 504.844C575.12 507.16 573.95 510.214 574 513.37V513.37C574 506.72 568.85 501.52 562.58 501.74C556.31 501.96 551.35 507.44 551.36 513.99C551.37 520.54 556.36 525.75 562.62 525.63L586.22 525.12C589.282 524.819 592.119 523.378 594.167 521.083C596.216 518.788 597.327 515.806 597.28 512.73Z" stroke="white" stroke-width="8" stroke-linecap="round" stroke-linejoin="round"></path>
<path opacity="0.69" d="M576.71 405.14L576.82 454.26" stroke="white" stroke-width="8" stroke-miterlimit="10" stroke-linecap="round"></path>
<path opacity="0.69" d="M540.89 508.96L540.94 557.28" stroke="white" stroke-width="8" stroke-miterlimit="10" stroke-linecap="round"></path>
<path opacity="0.69" d="M527.65 424.53L518.57 471.66" stroke="white" stroke-width="8" stroke-miterlimit="10" stroke-linecap="round"></path>
<path opacity="0.69" d="M515.07 481.56L506.1 528.14" stroke="white" stroke-width="8" stroke-miterlimit="10" stroke-linecap="round"></path>
<path opacity="0.69" d="M625.23 405.24L586.62 408.79" stroke="white" stroke-width="8" stroke-miterlimit="10" stroke-linecap="round"></path>
<path opacity="0.69" d="M615.67 420.1L586.66 422.52" stroke="white" stroke-width="8" stroke-miterlimit="10" stroke-linecap="round"></path>
<path opacity="0.69" d="M615.71 434.09L586.69 436.26" stroke="white" stroke-width="8" stroke-miterlimit="10" stroke-linecap="round"></path>
<path opacity="0.69" d="M615.76 448.09L586.73 450.02" stroke="white" stroke-width="8" stroke-miterlimit="10" stroke-linecap="round"></path>
<path opacity="0.69" d="M628.6 415.93L639.27 464.98" stroke="white" stroke-width="8" stroke-miterlimit="10" stroke-linecap="round"></path>
<path opacity="0.69" d="M643.4 475.27L654.29 525.33" stroke="white" stroke-width="8" stroke-miterlimit="10" stroke-linecap="round"></path>
<path opacity="0.69" d="M608.47 506.88L608.64 557.28" stroke="white" stroke-width="8" stroke-miterlimit="10" stroke-linecap="round"></path>
</g>
</svg>