<svg width="1889" height="505" viewBox="0 0 1889 505" fill="none" xmlns="http://www.w3.org/2000/svg">
<path d="M61.7927 95.9268C-17.8557 190.754 -9.42994 366.925 25.3349 430.045C80.2062 485.931 286.463 468.866 346.146 406.564C427.571 353.799 496.212 182.559 421.819 76.6153C326.346 -48.4178 129.953 -4.80793 61.7927 95.9268Z" fill="#F89838"></path>
<path d="M251.266 504.29C248.328 504.29 246.859 502.82 246.859 499.882V200.259C246.859 197.321 248.328 195.852 251.266 195.852H276.823C279.76 195.852 281.229 197.321 281.229 200.259V220.968C288.278 211.86 297.679 204.658 309.429 199.377C321.474 194.089 334.839 191.445 349.527 191.445C368.621 191.445 385.218 196.146 399.319 205.539C413.713 214.941 424.729 228.305 432.366 245.64C440.297 262.974 444.263 283.238 444.263 306.449C444.263 329.651 440.297 349.924 432.366 367.258C424.729 384.585 413.713 397.957 399.319 407.35C385.218 416.752 368.621 421.453 349.527 421.453C336.014 421.453 323.235 418.809 311.192 413.52C299.148 407.938 289.16 400.744 281.229 391.93V499.882C281.229 502.82 279.76 504.29 276.823 504.29H251.266ZM342.476 388.849C362.746 388.849 378.756 381.059 390.505 365.495C402.256 349.924 408.131 330.239 408.131 306.449C408.131 282.651 402.256 262.974 390.505 247.402C378.756 231.831 362.746 224.049 342.476 224.049C322.207 224.049 306.345 231.831 294.888 247.402C283.432 262.68 277.703 282.357 277.703 306.449C277.703 330.533 283.432 350.369 294.888 365.932C306.345 381.21 322.207 388.849 342.476 388.849Z" fill="#1E22AA"></path>
<path d="M495.251 417.046C492.313 417.046 490.844 415.577 490.844 412.639V200.259C490.844 197.321 492.313 195.852 495.251 195.852H520.804C523.742 195.852 525.211 197.321 525.211 200.259V224.494C532.262 214.798 541.37 206.866 552.527 200.696C563.985 194.526 576.467 191.445 589.982 191.445C604.966 191.445 617.6 194.97 627.875 202.022C638.452 208.771 646.679 218.173 652.555 230.219C653.142 231.394 653.436 232.418 653.436 233.3C653.436 234.769 652.555 236.238 650.792 237.707L629.638 251.809C628.169 252.691 626.851 253.128 625.676 253.128C624.207 253.128 622.888 252.103 621.713 250.047C615.25 239.764 608.929 232.863 602.759 229.337C596.597 225.812 588.371 224.049 578.087 224.049C561.928 224.049 549.009 231.982 539.313 247.847C529.912 263.411 525.211 282.357 525.211 304.686V412.639C525.211 415.577 523.742 417.046 520.804 417.046H495.251Z" fill="#1E22AA"></path>
<path d="M775.375 421.453C754.817 421.453 736.308 416.752 719.855 407.35C703.703 397.663 690.919 384.148 681.525 366.813C672.417 349.193 667.859 329.064 667.859 306.449C667.859 283.826 672.417 263.855 681.525 246.521C690.919 228.893 703.703 215.386 719.855 205.984C736.308 196.289 754.817 191.445 775.375 191.445C795.942 191.445 814.3 196.289 830.46 205.984C846.905 215.386 859.681 228.893 868.789 246.521C878.191 263.855 882.892 283.826 882.892 306.449C882.892 329.064 878.191 349.193 868.789 366.813C859.681 384.148 846.905 397.663 830.46 407.35C814.3 416.752 795.942 421.453 775.375 421.453ZM775.375 388.849C789.184 388.849 801.524 385.323 812.387 378.272C823.257 371.221 831.627 361.525 837.503 349.193C843.673 336.56 846.762 322.314 846.762 306.449C846.762 290.584 843.673 276.489 837.503 264.149C831.627 251.516 823.257 241.677 812.387 234.626C801.524 227.575 789.184 224.049 775.375 224.049C761.567 224.049 749.235 227.575 738.364 234.626C727.493 241.677 718.973 251.516 712.803 264.149C706.935 276.489 703.997 290.584 703.997 306.449C703.997 322.314 706.935 336.56 712.803 349.193C718.973 361.525 727.493 371.221 738.364 378.272C749.235 385.323 761.567 388.849 775.375 388.849Z" fill="#1E22AA"></path>
<path d="M1032.41 421.453C1017.73 421.453 1004.36 418.809 992.322 413.52C980.57 408.232 971.168 401.038 964.117 391.93V412.639C964.117 415.577 962.648 417.046 959.71 417.046H934.157C931.219 417.046 929.75 415.577 929.75 412.639V113.007C929.75 110.069 931.219 108.6 934.157 108.6H959.71C962.648 108.6 964.117 110.069 964.117 113.007V220.968C972.05 212.154 982.039 205.102 994.085 199.814C1006.12 194.232 1018.91 191.445 1032.41 191.445C1051.51 191.445 1068.11 196.146 1082.21 205.539C1096.61 214.941 1107.62 228.305 1115.26 245.639C1123.19 262.974 1127.15 283.238 1127.15 306.449C1127.15 329.651 1123.19 349.924 1115.26 367.258C1107.62 384.584 1096.61 397.956 1082.21 407.35C1068.11 416.752 1051.51 421.453 1032.41 421.453ZM1025.37 388.849C1045.64 388.849 1061.64 381.059 1073.4 365.495C1085.15 349.924 1091.02 330.239 1091.02 306.449C1091.02 282.651 1085.15 262.974 1073.4 247.402C1061.64 231.831 1045.64 224.049 1025.37 224.049C1005.1 224.049 989.233 231.831 977.775 247.402C966.325 262.68 960.591 282.357 960.591 306.449C960.591 330.533 966.325 350.368 977.775 365.932C989.233 381.21 1005.1 388.849 1025.37 388.849Z" fill="#1E22AA"></path>
<path d="M1242.04 421.453C1219.71 421.453 1200.62 415.434 1184.75 403.388C1169.19 391.342 1161.4 374.016 1161.4 351.393C1161.4 327.889 1169.92 309.824 1186.96 297.198C1203.99 284.271 1225.58 277.807 1251.73 277.807C1271.11 277.807 1290.36 280.888 1309.45 287.058V276.044C1309.45 259.004 1304.9 246.084 1295.79 237.27C1286.98 228.456 1273.76 224.049 1256.14 224.049C1232.05 224.049 1215.6 235.213 1206.79 257.535C1205.91 260.179 1203.85 261.505 1200.62 261.505H1172.42C1170.36 261.505 1169.33 260.624 1169.33 258.861C1169.33 257.098 1169.48 255.629 1169.78 254.454C1174.47 236.825 1184.32 221.992 1199.29 209.946C1214.28 197.615 1233.22 191.445 1256.14 191.445C1272.88 191.445 1287.86 194.677 1301.08 201.14C1314.6 207.596 1325.02 216.561 1332.37 228.011C1340.01 239.47 1343.83 252.54 1343.83 267.23V374.746C1343.83 384.736 1344.26 392.223 1345.14 397.218C1346.32 401.919 1348.38 407.057 1351.31 412.639L1352.2 414.846C1352.2 416.315 1350.87 417.046 1348.23 417.046H1313.86C1310.92 417.046 1309.45 415.577 1309.45 412.639V389.73C1294.18 410.876 1271.7 421.453 1242.04 421.453ZM1245.56 388.849C1256.73 388.849 1267.15 386.205 1276.85 380.916C1286.84 375.334 1294.77 367.401 1300.64 357.118C1306.51 346.549 1309.45 334.058 1309.45 319.67C1291.54 313.5 1272.44 310.411 1252.17 310.411C1236.31 310.411 1223.23 313.937 1212.96 320.988C1202.67 328.039 1197.53 338.172 1197.53 351.393C1197.53 362.851 1201.64 371.959 1209.87 378.709C1218.39 385.466 1230.28 388.849 1245.56 388.849Z" fill="#1E22AA"></path>
<path d="M1501.88 421.453C1487.2 421.453 1473.83 418.809 1461.79 413.52C1450.04 408.232 1440.64 401.038 1433.59 391.93V412.639C1433.59 415.577 1432.12 417.046 1429.18 417.046H1403.63C1400.69 417.046 1399.22 415.577 1399.22 412.639V113.007C1399.22 110.069 1400.69 108.6 1403.63 108.6H1429.18C1432.12 108.6 1433.59 110.069 1433.59 113.007V220.968C1441.52 212.154 1451.51 205.102 1463.55 199.814C1475.59 194.232 1488.37 191.445 1501.88 191.445C1520.98 191.445 1537.58 196.146 1551.68 205.539C1566.07 214.941 1577.09 228.305 1584.73 245.639C1592.65 262.974 1596.62 283.238 1596.62 306.449C1596.62 329.651 1592.65 349.924 1584.73 367.258C1577.09 384.584 1566.07 397.956 1551.68 407.35C1537.58 416.752 1520.98 421.453 1501.88 421.453ZM1494.83 388.849C1515.1 388.849 1531.11 381.059 1542.86 365.495C1554.62 349.924 1560.49 330.239 1560.49 306.449C1560.49 282.651 1554.62 262.974 1542.86 247.402C1531.11 231.831 1515.1 224.049 1494.83 224.049C1474.57 224.049 1458.7 231.831 1447.24 247.402C1435.79 262.68 1430.06 282.357 1430.06 306.449C1430.06 330.533 1435.79 350.368 1447.24 365.932C1458.7 381.21 1474.57 388.849 1494.83 388.849Z" fill="#1E22AA"></path>
<path d="M1615.68 417.046C1612.74 417.046 1611.27 415.577 1611.27 412.639V388.849C1611.27 385.911 1612.74 384.442 1615.68 384.442H1678.24V141.212H1623.17C1620.23 141.212 1618.76 139.743 1618.76 136.805V113.007C1618.76 110.069 1620.23 108.6 1623.17 108.6H1708.21C1711.15 108.6 1712.62 110.069 1712.62 113.007V384.442H1776.95C1779.88 384.442 1781.35 385.911 1781.35 388.849V412.639C1781.35 415.577 1779.88 417.046 1776.95 417.046H1615.68Z" fill="#1E22AA"></path>
<path d="M146.922 243.44C143.984 243.44 142.516 241.971 142.516 239.033V202.903C142.516 199.965 143.984 198.496 146.922 198.496H183.053C185.991 198.496 187.46 199.965 187.46 202.903V239.033C187.46 241.971 185.991 243.44 183.053 243.44H146.922ZM146.922 416.331C143.984 416.331 142.516 414.862 142.516 411.924V375.794C142.516 372.856 143.984 371.387 146.922 371.387H183.053C185.991 371.387 187.46 372.856 187.46 375.794V411.924C187.46 414.862 185.991 416.331 183.053 416.331H146.922Z" fill="#1E22AA"></path>
<path d="M1848.07 421.516C1845.13 421.516 1843.66 420.047 1843.66 417.109V380.979C1843.66 378.041 1845.13 376.572 1848.07 376.572H1884.2C1887.14 376.572 1888.61 378.041 1888.61 380.979V417.109C1888.61 420.047 1887.14 421.516 1884.2 421.516H1848.07Z" fill="#1E22AA"></path>
</svg>